<svg width="737" height="466" viewBox="0 0 737 466" fill="none" xmlns="http://www.w3.org/2000/svg">
<g clip-path="url(#clip0_9_270)">
<rect width="737" height="466" rx="10" fill="white"/>
<rect width="308" height="466" transform="translate(429)" fill="#06A67E"/>
<circle cx="438.5" cy="116.5" r="28.5" fill="white" fill-opacity="0.2"/>
<circle cx="474.5" cy="394.5" r="7.5" fill="white" fill-opacity="0.2"/>
<circle cx="578.5" cy="145.5" r="14.5" fill="white" fill-opacity="0.2"/>
<rect width="14.988" height="38.7886" transform="matrix(0.674398 -0.738368 0.74266 0.669668 302 368.687)" fill="white" fill-opacity="0.2"/>
<rect width="14.988" height="38.7886" transform="matrix(0.674398 -0.738368 0.74266 0.669668 497 273.067)" fill="white" fill-opacity="0.2"/>
<rect width="14.988" height="38.7886" transform="matrix(0.674398 -0.738368 0.74266 0.669668 535 11.0666)" fill="white" fill-opacity="0.2"/>
<path d="M353.038 258.087L361.256 169.834L434.069 221.032L353.038 258.087Z" fill="white" fill-opacity="0.2"/>
<path d="M557.026 446.257L561.331 400.017L599.481 426.842L557.026 446.257Z" fill="white" fill-opacity="0.2"/>
<path d="M335.5 25.7569L360 50.1002L335.5 74.4435L311 50.1002L335.5 25.7569Z" fill="white" fill-opacity="0.2"/>
<path d="M595.5 314L612 330.5L595.5 347L579 330.5L595.5 314Z" fill="white" fill-opacity="0.2"/>
<circle cx="-8.5" cy="466.5" r="134.5" fill="white" fill-opacity="0.2"/>
<rect x="818.728" y="-232.848" width="310.866" height="388.582" transform="rotate(42.5411 818.728 -232.848)" fill="white" fill-opacity="0.2"/>
</g>
<defs>
<clipPath id="clip0_9_270">
<rect width="737" height="466" rx="10" fill="white"/>
</clipPath>
</defs>
</svg>
